<?xml version="1.0" encoding="UTF-8" standalone="no"?>
<!DOCTYPE svg PUBLIC "-//W3C//DTD SVG 1.1//EN"
 "http://www.w3.org/Graphics/SVG/1.1/DTD/svg11.dtd">
<!-- Generated by graphviz version 2.40.1 (20161225.0304)
 -->
<!-- Title: dependencies Pages: 1 -->
<svg width="730pt" height="284pt"
 viewBox="0.00 0.00 730.00 284.00" xmlns="http://www.w3.org/2000/svg" xmlns:xlink="http://www.w3.org/1999/xlink">
<g id="graph0" class="graph" transform="scale(1 1) rotate(0) translate(4 280)">
<title>dependencies</title>
<polygon fill="#ffffff" stroke="transparent" points="-4,4 -4,-280 726,-280 726,4 -4,4"/>
<text text-anchor="start" x="340.0091" y="-42.4" font-family="sans-serif" font-weight="bold" font-size="14.00" fill="#000000">Legend</text>
<polygon fill="#ffffb3" stroke="transparent" points="127,-10 127,-30 147,-30 147,-10 127,-10"/>
<text text-anchor="start" x="150.629" y="-15.4" font-family="sans-serif" font-size="14.00" fill="#000000"> &#160;Declarations</text>
<polygon fill="#8dd3c7" stroke="transparent" points="240,-10 240,-30 260,-30 260,-10 240,-10"/>
<text text-anchor="start" x="263.7251" y="-15.4" font-family="sans-serif" font-size="14.00" fill="#000000"> &#160;Module</text>
<polygon fill="#80b1d3" stroke="transparent" points="326,-10 326,-30 346,-30 346,-10 326,-10"/>
<text text-anchor="start" x="349.7812" y="-15.4" font-family="sans-serif" font-size="14.00" fill="#000000"> &#160;Bootstrap</text>
<polygon fill="#fdb462" stroke="transparent" points="423,-10 423,-30 443,-30 443,-10 423,-10"/>
<text text-anchor="start" x="446.6732" y="-15.4" font-family="sans-serif" font-size="14.00" fill="#000000"> &#160;Providers</text>
<polygon fill="#fb8072" stroke="transparent" points="519,-10 519,-30 539,-30 539,-10 519,-10"/>
<text text-anchor="start" x="542.7258" y="-15.4" font-family="sans-serif" font-size="14.00" fill="#000000"> &#160;Exports</text>
<g id="clust1" class="cluster">
<title>cluster_AppModule</title>
<polygon fill="none" stroke="#000000" stroke-dasharray="1,5" points="8,-70 8,-268 714,-268 714,-70 8,-70"/>
</g>
<g id="clust2" class="cluster">
<title>cluster_AppModule_declarations</title>
<polygon fill="none" stroke="#000000" points="144,-78 144,-130 706,-130 706,-78 144,-78"/>
</g>
<g id="clust7" class="cluster">
<title>cluster_AppModule_imports</title>
<polygon fill="none" stroke="#000000" points="16,-78 16,-130 136,-130 136,-78 16,-78"/>
</g>
<g id="clust9" class="cluster">
<title>cluster_AppModule_bootstrap</title>
<polygon fill="none" stroke="#000000" points="303,-208 303,-260 427,-260 427,-208 303,-208"/>
</g>
<!-- AppComponent -->
<g id="node1" class="node">
<title>AppComponent</title>
<polygon fill="#ffffb3" stroke="#000000" points="697.9399,-122 592.0601,-122 592.0601,-86 697.9399,-86 697.9399,-122"/>
<text text-anchor="middle" x="645" y="-99.8" font-family="Times,serif" font-size="14.00" fill="#000000">AppComponent</text>
</g>
<!-- AppModule -->
<g id="node5" class="node">
<title>AppModule</title>
<polygon fill="#8dd3c7" stroke="#000000" points="406.6571,-187 403.6571,-191 382.6571,-191 379.6571,-187 323.3429,-187 323.3429,-151 406.6571,-151 406.6571,-187"/>
<text text-anchor="middle" x="365" y="-164.8" font-family="Times,serif" font-size="14.00" fill="#000000">AppModule</text>
</g>
<!-- AppComponent&#45;&gt;AppModule -->
<g id="edge1" class="edge">
<title>AppComponent&#45;&gt;AppModule</title>
<path fill="none" stroke="#000000" d="M645,-122.2843C645,-143.3211 645,-175 645,-175 645,-175 416.9188,-175 416.9188,-175"/>
<polygon fill="#000000" stroke="#000000" points="416.9189,-171.5001 406.9188,-175 416.9188,-178.5001 416.9189,-171.5001"/>
</g>
<!-- FooterComponent -->
<g id="node2" class="node">
<title>FooterComponent</title>
<polygon fill="#ffffb3" stroke="#000000" points="573.8809,-122 456.1191,-122 456.1191,-86 573.8809,-86 573.8809,-122"/>
<text text-anchor="middle" x="515" y="-99.8" font-family="Times,serif" font-size="14.00" fill="#000000">FooterComponent</text>
</g>
<!-- FooterComponent&#45;&gt;AppModule -->
<g id="edge2" class="edge">
<title>FooterComponent&#45;&gt;AppModule</title>
<path fill="none" stroke="#000000" d="M515,-122.0225C515,-139.3734 515,-163 515,-163 515,-163 416.7834,-163 416.7834,-163"/>
<polygon fill="#000000" stroke="#000000" points="416.7834,-159.5001 406.7834,-163 416.7833,-166.5001 416.7834,-159.5001"/>
</g>
<!-- MainImageComponent -->
<g id="node3" class="node">
<title>MainImageComponent</title>
<polygon fill="#ffffb3" stroke="#000000" points="437.8627,-122 292.1373,-122 292.1373,-86 437.8627,-86 437.8627,-122"/>
<text text-anchor="middle" x="365" y="-99.8" font-family="Times,serif" font-size="14.00" fill="#000000">MainImageComponent</text>
</g>
<!-- MainImageComponent&#45;&gt;AppModule -->
<g id="edge3" class="edge">
<title>MainImageComponent&#45;&gt;AppModule</title>
<path fill="none" stroke="#000000" d="M365,-122.1061C365,-122.1061 365,-140.991 365,-140.991"/>
<polygon fill="#000000" stroke="#000000" points="361.5001,-140.9909 365,-150.991 368.5001,-140.991 361.5001,-140.9909"/>
</g>
<!-- NavbarComponent -->
<g id="node4" class="node">
<title>NavbarComponent</title>
<polygon fill="#ffffb3" stroke="#000000" points="274.0297,-122 151.9703,-122 151.9703,-86 274.0297,-86 274.0297,-122"/>
<text text-anchor="middle" x="213" y="-99.8" font-family="Times,serif" font-size="14.00" fill="#000000">NavbarComponent</text>
</g>
<!-- NavbarComponent&#45;&gt;AppModule -->
<g id="edge4" class="edge">
<title>NavbarComponent&#45;&gt;AppModule</title>
<path fill="none" stroke="#000000" d="M213,-122.0225C213,-139.3734 213,-163 213,-163 213,-163 313.063,-163 313.063,-163"/>
<polygon fill="#000000" stroke="#000000" points="313.063,-166.5001 323.063,-163 313.0629,-159.5001 313.063,-166.5001"/>
</g>
<!-- AppComponent  -->
<g id="node7" class="node">
<title>AppComponent </title>
<polygon fill="#80b1d3" stroke="#000000" points="419.439,-252 310.561,-252 310.561,-216 419.439,-216 419.439,-252"/>
<text text-anchor="middle" x="365" y="-229.8" font-family="Times,serif" font-size="14.00" fill="#000000">AppComponent </text>
</g>
<!-- AppModule&#45;&gt;AppComponent  -->
<g id="edge6" class="edge">
<title>AppModule&#45;&gt;AppComponent </title>
<path fill="none" stroke="#000000" stroke-dasharray="1,5" d="M365,-187.1061C365,-187.1061 365,-205.991 365,-205.991"/>
<polygon fill="#000000" stroke="#000000" points="361.5001,-205.9909 365,-215.991 368.5001,-205.991 361.5001,-205.9909"/>
</g>
<!-- RoutingModule -->
<g id="node6" class="node">
<title>RoutingModule</title>
<polygon fill="#8dd3c7" stroke="#000000" points="128.1681,-122 125.1681,-126 104.1681,-126 101.1681,-122 23.8319,-122 23.8319,-86 128.1681,-86 128.1681,-122"/>
<text text-anchor="middle" x="76" y="-99.8" font-family="Times,serif" font-size="14.00" fill="#000000">RoutingModule</text>
</g>
<!-- RoutingModule&#45;&gt;AppModule -->
<g id="edge5" class="edge">
<title>RoutingModule&#45;&gt;AppModule</title>
<path fill="none" stroke="#000000" d="M76,-122.2843C76,-143.3211 76,-175 76,-175 76,-175 313.2856,-175 313.2856,-175"/>
<polygon fill="#000000" stroke="#000000" points="313.2856,-178.5001 323.2856,-175 313.2855,-171.5001 313.2856,-178.5001"/>
</g>
</g>
</svg>
